<?xml version="1.0"?>
<svg xmlns="http://www.w3.org/2000/svg" viewBox="0 0 16 16">
    <path style="line-height:normal;text-indent:0;text-align:start;text-decoration-line:none;text-decoration-style:solid;text-decoration-color:#000;text-transform:none;block-progression:tb;isolation:auto;mix-blend-mode:normal" d="M 2.5 2 C 1.6774686 2 1 2.6774686 1 3.5 L 1 11.5 C 1 12.322531 1.6774686 13 2.5 13 L 13.5 13 C 14.322531 13 15 12.322531 15 11.5 L 15 3.5 C 15 2.6774686 14.322531 2 13.5 2 L 2.5 2 z M 2.5 3 L 11 3 L 11 12 L 2.5 12 C 2.2185314 12 2 11.781469 2 11.5 L 2 3.5 C 2 3.2185314 2.2185314 3 2.5 3 z M 12 3 L 13.5 3 C 13.781469 3 14 3.2185314 14 3.5 L 14 11.5 C 14 11.781469 13.781469 12 13.5 12 L 12 12 L 12 3 z M 7 5 L 7 7 L 4 7 L 4 8 L 7 8 L 7 10 L 9.5 7.5 L 7 5 z" font-weight="400" font-family="sans-serif" white-space="normal" overflow="visible"/>
</svg>
